<svg xmlns="http://www.w3.org/2000/svg" width="21" height="21" fill="none">
  <g clip-path="url(#a)">
    <path d="M15.0113 16.0475c.016-.4934-.3832-.9033-.8742-.9033h-.0018v-.0003h.0731c.4767-.0004.8627-.3872.8624-.8639-.0003-.4767-.3871-.8603-.8638-.86h-3.5913c-.1001 0-.1711-.0978-.1399-.1929l.3148-.9608c.2679-.8178.2203-1.3745.2203-2.33234 0-.56335-.4567-1.0199-1.02006-1.0199-.51178 0-.94436.37903-1.01135.88639-.074.56135-.12405 1.55955-1.05194 2.45315l-.65506.6305a1.95751 1.95751 0 0 1-1.35803.5476h-.86044v5.662c.23407-.0002.70434-.0002.70465-.0002 1.25045-.0008 1.13617 1.2375 2.69134 1.2361h5.29279c.4761 0 .862-.386.862-.8621 0-.4762-.3859-.8621-.862-.8621h.1519c.4684 0 .8685-.3644.884-.8327.0164-.4895-.3756-.8916-.8615-.8916h.2097c.4689 0 .8693-.3648.8844-.8336Z" fill="#FFCDBF"/>
    <path d="M13.7429 19.324H8.45004c-1.55517.0015-1.44088-1.2369-2.69134-1.2361-.00031 0-.47058.0001-.7045.0003v1.006c.23392-.0001.70419-.0001.7045-.0001 1.25046-.0008 1.13617 1.2374 2.69134 1.2361h5.29286c.476 0 .8619-.3861.8619-.8622 0-.1879-.0607-.3614-.1629-.503-.1564.2171-.411.359-.699.359Z" fill="#FFBEAB"/>
    <path d="M4.80926 12.9238H1.54404c-.24628 0-.44602.1998-.44602.446v5.8982c0 .2464.19959.4461.44602.4461h3.26522c.24628 0 .44602-.1997.44602-.4461v-5.8982c0-.2462-.19974-.446-.44602-.446Z" fill="#54A0FF"/>
    <path d="M2.3053 19.2681v-5.8983c0-.2462.19974-.446.44616-.446H1.54404c-.24628 0-.44602.1998-.44602.446v5.8982c0 .2464.19959.4461.44602.4461h1.20727c-.24627 0-.44601-.1997-.44601-.446Z" fill="#338DEF"/>
    <path d="M5.80155 5.00071c.12176-.11643.05463-.31891-.11368-.34302l-1.3002-.18493c-.06683-.00962-.12451-.05066-.15442-.11002l-.58151-1.15402c-.07523-.14939-.29267-.14939-.36804 0l-.58136 1.15402c-.02991.05936-.08774.10055-.15457.11002l-1.30005.18493c-.16831.02396-.2356.22659-.11368.34302l.9407.89828c.04837.04609.07035.11261.05905.17792l-.22216 1.26831c-.02869.16419.14724.28946.29785.21195l1.16287-.59891a.20952.20952 0 0 1 .19089 0l1.16287.59891c.1506.07751.32654-.04776.29785-.21195l-.22217-1.26831c-.01144-.06531.01068-.13183.05905-.17792l.94071-.89828Z" fill="#FECA57"/>
    <path d="M3.55347 5.84463c.01144-.06515-.01053-.13168-.0589-.17791l-.94086-.89829c-.09323-.08896-.07538-.22842.01358-.29968a.1983.1983 0 0 1-.01953.00381l-1.30005.18509c-.1683.02396-.23544.2266-.11368.34287l.94071.89828c.04837.04624.07049.11277.05905.17792l-.22202 1.26846c-.02884.16419.1471.28946.2977.21195L3.35724 6.966l.19623-1.12137ZM2.66754 4.42561l1.30005-.18509c.0647-.00916.1207-.04822.15137-.10453l-.46707-.92727c-.07538-.14939-.29282-.14939-.36805 0l-.58151 1.15402c-.01343.02655-.03265.04929-.05554.06729.00671-.00168.01358-.00336.02075-.00442Z" fill="#F4B537"/>
    <path d="M19.1922 5.00071c.1218-.11643.0545-.31891-.1138-.34302l-1.3001-.18493c-.0668-.00962-.1247-.05066-.1546-.11002l-.5813-1.15402c-.0752-.14939-.2928-.14939-.3681 0l-.5815 1.15402c-.0299.05936-.0876.10055-.1544.11002l-1.3.18493c-.1685.02396-.2356.22659-.1139.34302l.9407.89828c.0484.04609.0705.11261.0591.17792l-.222 1.26831c-.0289.16419.1472.28946.2977.21195l1.1628-.59891a.20995.20995 0 0 1 .1911 0l1.1627.59891c.1506.07751.3265-.04776.2979-.21195l-.2222-1.26831c-.0115-.06531.0107-.13183.059-.17792l.9409-.89828Z" fill="#FECA57"/>
    <path d="M16.9441 5.84463c.0115-.06515-.0106-.13168-.059-.17791l-.9407-.89829c-.0932-.08896-.0754-.22842.0134-.29968a.20152.20152 0 0 1-.0194.00381l-1.3.18509c-.1683.02396-.2356.2266-.1138.34287l.9408.89828c.0484.04624.0704.11277.0589.17792l-.222 1.26846c-.0287.16419.1472.28946.2978.21195l1.1478-.59113.1962-1.12137ZM16.058 4.42561l1.3001-.18509c.0648-.00916.1208-.04822.1514-.10453l-.4671-.92727c-.0752-.14939-.2928-.14939-.3681 0l-.5813 1.15402c-.0134.02655-.0327.04929-.0557.06729.0069-.00168.0136-.00336.0207-.00442Z" fill="#F4B537"/>
    <path d="M13.9366 3.40873c.197-.18814.0882-.51575-.1839-.55451L11.6505 2.555c-.108-.01541-.2016-.08179-.2498-.17776l-.9401-1.866c-.1217-.24155-.47344-.24155-.59505 0l-.9401 1.866c-.04837.09597-.14175.16235-.24994.17776l-2.10205.29922c-.27221.03876-.38086.36637-.18402.55451l1.52115 1.45233c.07828.07477.11398.18234.09552.28778l-.35919 2.05078c-.04639.26551.23819.46799.48157.34272l1.88021-.96833a.33817.33817 0 0 1 .3088 0l1.8802.96833c.2434.12527.528-.07721.4814-.34272l-.359-2.05078c-.0185-.10544.0172-.21301.0953-.28778l1.5212-1.45233Z" fill="#FECA57"/>
    <path d="M10.0954 2.32291c.108-.01541.2014-.08194.2498-.17776l.4693-.93155-.3538-.70236c-.1218-.24155-.47352-.24155-.59513 0l-.94009 1.866c-.02716.05355-.06852.09765-.11841.12908l1.28833-.18341ZM9.06675 6.96716l.35904-2.05093c.01846-.10544-.01725-.21301-.09537-.28763L7.80927 3.17612c-.16022-.1529-.1181-.3981.04944-.50522l-1.28525.18295c-.27221.03876-.38086.36636-.18402.55451l1.52115 1.45233c.07828.07477.11398.18234.09552.28778l-.35919 2.05078c-.04639.2655.23803.46799.48157.34271l.93551-.48187a.3186.3186 0 0 1 .00275-.09293Z" fill="#F4B537"/>
    <g fill="#FFBEAB">
      <path d="M12.3616 16.4795c0 .2223.1802.4025.4023.4025h1.363c.4593 0 .8517-.3501.8821-.8049h-2.2449c-.2223 0-.4025.1803-.4025.4024ZM12.3616 14.7422c0 .2223.1802.4025.4023.4025h1.4443c.4568-.0004.8295-.3558.8597-.8049h-2.304c-.2221 0-.4023.1803-.4023.4024ZM14.7764 17.8018h-2.0125c-.2221 0-.4023.1802-.4023.4023 0 .2224.1802.4026.4023.4026h1.1307c.4592 0 .8515-.3502.8818-.8049Z"/>
    </g>
  </g>
  <defs>
    <clipPath id="a">
      <path fill="#fff" transform="translate(.17334 .33008)" d="M0 0h20v20H0z"/>
    </clipPath>
  </defs>
</svg>